<?xml version="1.0" encoding="UTF-8" standalone="no"?>
<!-- Created with Inkscape (http://www.inkscape.org/) -->

<svg
   width="5.6240158mm"
   height="6.4269791mm"
   viewBox="0 0 5.6240158 6.4269791"
   version="1.1"
   id="svg5"
   xml:space="preserve"
   xmlns:inkscape="http://www.inkscape.org/namespaces/inkscape"
   xmlns:sodipodi="http://sodipodi.sourceforge.net/DTD/sodipodi-0.dtd"
   xmlns="http://www.w3.org/2000/svg"
   xmlns:svg="http://www.w3.org/2000/svg"><sodipodi:namedview
     id="namedview7"
     pagecolor="#ffffff"
     bordercolor="#000000"
     borderopacity="0.25"
     inkscape:showpageshadow="2"
     inkscape:pageopacity="0.0"
     inkscape:pagecheckerboard="0"
     inkscape:deskcolor="#d1d1d1"
     inkscape:document-units="mm"
     showgrid="false"
     inkscape:zoom="11.459933"
     inkscape:cx="197.95055"
     inkscape:cy="329.80124"
     inkscape:window-width="1920"
     inkscape:window-height="991"
     inkscape:window-x="-9"
     inkscape:window-y="-9"
     inkscape:window-maximized="1"
     inkscape:current-layer="layer1" /><defs
     id="defs2" /><g
     inkscape:label="Layer 1"
     inkscape:groupmode="layer"
     id="layer1"
     transform="translate(-54.530893,-84.268705)"><path
       style="fill:#16c784;fill-opacity:1;stroke-width:0.0149243"
       d="m 54.601354,90.679653 c -0.04085,-0.01687 -0.07055,-0.06699 -0.07046,-0.118901 3.3e-5,-0.02049 0.02802,-0.105474 0.06217,-0.188849 0.0599,-0.146211 2.550702,-5.78372 2.631291,-5.955491 0.02179,-0.04648 0.05739,-0.09872 0.07909,-0.116101 l 0.03946,-0.03161 0.03945,0.03161 c 0.0217,0.01738 0.0573,0.06963 0.07909,0.116101 0.0806,0.171771 2.571389,5.80928 2.631291,5.955491 0.03417,0.08338 0.06215,0.168361 0.06217,0.188849 1.23e-4,0.05411 -0.03009,0.102195 -0.0752,0.119719 -0.05358,0.02081 -5.42795,0.02001 -5.478399,-8.18e-4 z"
       id="path179"
       inkscape:export-filename="1.svg"
       inkscape:export-xdpi="103.87597"
       inkscape:export-ydpi="103.87597" /></g></svg>
